<svg width="56" height="57" viewBox="0 0 56 57" fill="none" xmlns="http://www.w3.org/2000/svg">
<path fill-rule="evenodd" clip-rule="evenodd" d="M28.3426 32.9188C28.2812 33.4222 28.2631 33.9176 28.1257 34.4301C27.9069 35.1606 27.3347 35.6073 26.7174 35.5893C26.4245 35.5965 26.0123 35.4182 25.7348 35.1849L22.4978 32.5558H20.6945C19.8249 32.5558 19.2392 31.9631 19.1208 30.9868C18.9517 29.7853 18.968 27.6146 19.1208 26.3888C19.2392 25.5422 19.8249 24.8747 20.6945 24.8747H22.4978L25.6679 22.2907C25.9454 22.0556 26.4245 21.834 26.7174 21.8403C27.3347 21.8223 27.9069 22.27 28.1257 22.9995C28.2477 23.4661 28.2812 24.0083 28.3426 24.5118C28.49 25.689 28.49 31.7416 28.3426 32.9188Z" stroke="white" stroke-width="0.859375" stroke-linecap="round" stroke-linejoin="round"/>
<path d="M31.756 24.2551C32.5363 25.3774 33.0047 26.8831 33.0047 28.5588C33.0047 30.2346 32.5363 31.7394 31.756 32.8617" stroke="white" stroke-width="0.859375" stroke-linecap="round" stroke-linejoin="round"/>
<path d="M34.7046 21.625C35.9619 23.4331 36.7164 25.8583 36.7164 28.5584C36.7164 31.2586 35.9619 33.6846 34.7046 35.4927" stroke="white" stroke-width="0.859375" stroke-linecap="round" stroke-linejoin="round"/>
<circle cx="27.9375" cy="28.5" r="27.5" stroke="white" stroke-width="0.859375"/>
</svg>
