<svg width="94" height="173" viewBox="0 0 94 173" fill="none" xmlns="http://www.w3.org/2000/svg">
<path d="M1 57.4822V58.04L1 171.562H92.9091V58.04V57.4822V1H1L1 57.4822Z" stroke="white" stroke-width="1.4333" stroke-miterlimit="10"/>
<path d="M1 171.562L92.9091 1" stroke="white" stroke-width="1.4333" stroke-miterlimit="10"/>
<path d="M36.4183 159.394C36.4183 159.097 36.2844 158.799 36.1505 158.65C35.8827 158.501 35.6149 158.352 35.3471 158.352C35.0793 158.352 34.8115 158.352 34.6776 158.501C34.5437 158.65 34.4098 158.799 34.4098 159.097C34.4098 159.245 34.5437 159.394 34.6776 159.543C35.0793 159.692 35.3471 159.841 35.7488 159.841C36.2844 160.139 36.82 160.437 37.3556 160.735C37.6234 161.033 37.7573 161.48 37.7573 161.927C37.7573 162.522 37.4895 162.969 37.2217 163.267C36.6861 163.565 36.1505 163.863 35.6149 163.714C35.0793 163.714 34.4098 163.565 34.0081 163.267C33.6064 162.82 33.3386 162.373 33.3386 161.778H34.4098C34.4098 162.076 34.5437 162.373 34.6776 162.522C34.9454 162.671 35.2132 162.82 35.481 162.82C35.7488 162.82 36.0166 162.82 36.2844 162.671C36.4183 162.522 36.5522 162.373 36.5522 162.076C36.5522 161.927 36.5522 161.778 36.4183 161.629C36.1505 161.48 35.7488 161.331 35.481 161.331C34.8115 161.182 34.2759 161.033 33.7403 160.586C33.4725 160.288 33.3386 159.841 33.3386 159.394C33.3386 158.799 33.4725 158.352 33.8742 158.054C34.2759 157.756 34.8115 157.458 35.3471 157.607C35.8827 157.607 36.4183 157.756 36.82 158.203C37.2217 158.501 37.4895 159.097 37.4895 159.692L36.4183 159.394Z" fill="white"/>
<path d="M40.4086 157.567H42.6011C43.246 157.567 43.7619 157.699 44.2778 158.226C44.6648 158.753 44.9227 159.411 44.7937 160.07C44.7937 160.86 44.6648 161.519 44.2778 162.178C43.8909 162.705 43.246 162.968 42.6011 162.836H40.5375V157.567H40.4086ZM41.4404 162.046H42.3432C42.7301 162.046 43.117 161.914 43.375 161.651C43.633 161.256 43.7619 160.729 43.7619 160.334C43.7619 159.938 43.6329 159.411 43.504 159.016C43.246 158.753 42.9881 158.621 42.6011 158.621H41.5693L41.4404 162.046Z" fill="white"/>
<path d="M47.7111 162.87H46.5948V157.567H48.2692L49.246 161.809L50.2228 157.567H51.8972V162.87H50.9205V158.363L49.8042 162.87H48.6879L47.5716 158.23L47.7111 162.87Z" fill="white"/>
<path d="M53.6647 160.218H56.316V161.102H53.6647V160.218Z" fill="white"/>
<path d="M57.1997 162.87V157.567H58.2097V161.942H60.7347V162.87H57.1997Z" fill="white"/>
<path d="M64.8784 158.91C64.8784 158.78 64.8784 158.518 64.7533 158.387C64.6282 158.387 64.5032 158.256 64.253 158.256C64.0029 158.256 63.8779 158.387 63.7528 158.518C63.6277 158.649 63.5027 158.91 63.6277 159.172H62.7523C62.7523 158.78 62.8774 158.256 63.2526 157.995C63.6277 157.733 64.0029 157.471 64.5032 157.602C64.8784 157.602 65.2535 157.733 65.6287 157.995C65.8788 158.256 66.129 158.649 66.0039 159.041C66.0039 159.434 65.8788 159.695 65.5037 159.957L65.3786 160.088C65.5037 160.088 65.6287 160.219 65.6287 160.219C65.8788 160.48 66.129 160.873 66.0039 161.265C66.0039 161.788 65.8788 162.181 65.5037 162.443C65.1285 162.704 64.7533 162.966 64.253 162.835C63.7528 162.835 63.3776 162.704 63.0024 162.443C62.6273 162.05 62.5022 161.658 62.5022 161.134H63.5027C63.5027 161.396 63.5027 161.658 63.6277 161.788C63.7528 161.919 64.0029 162.05 64.128 162.05C64.3781 162.05 64.5032 161.919 64.6282 161.788C64.7533 161.658 64.8784 161.396 64.8784 161.134C64.8784 160.873 64.8784 160.742 64.6282 160.611C64.5032 160.48 64.3781 160.48 64.128 160.349H63.6277V159.565H63.7528H64.0029C64.128 159.565 64.253 159.434 64.3781 159.434C64.8784 159.303 65.0034 159.172 64.8784 158.91Z" fill="white"/>
<path d="M67.8045 157.567H68.9828V159.766L71.3394 157.567H72.9596L70.603 159.766L73.1069 162.87H71.4867L69.7192 160.542L69.1301 161.059V162.87H67.9518V157.567H67.8045Z" fill="white"/>
<path d="M74.8744 157.567H77.067C77.7119 157.567 78.2278 157.699 78.7437 158.226C79.1306 158.753 79.3886 159.411 79.2596 160.07C79.2596 160.86 79.1306 161.519 78.7437 162.178C78.3567 162.705 77.7119 162.968 77.067 162.836H74.8744V157.567ZM75.9062 162.046H76.809C77.196 162.046 77.5829 161.914 77.8408 161.651C78.0988 161.256 78.2278 160.729 78.2278 160.334C78.2278 159.938 78.0988 159.411 77.9698 159.016C77.7119 158.753 77.4539 158.621 77.067 158.621H76.0352L75.9062 162.046Z" fill="white"/>
<path d="M83.296 159.543C83.296 159.245 83.166 158.948 83.036 158.799C82.7761 158.65 82.5162 158.501 82.2563 158.501C81.9963 158.501 81.7364 158.501 81.6065 158.65C81.4765 158.799 81.3465 158.948 81.3465 159.245C81.3465 159.394 81.4765 159.543 81.6065 159.692C81.9963 159.841 82.2563 159.99 82.6462 159.99C83.166 160.139 83.6859 160.288 84.2057 160.735C84.4656 161.033 84.5956 161.48 84.5956 161.927C84.5956 162.522 84.3357 162.969 83.9458 163.267C83.4259 163.565 82.9061 163.863 82.3862 163.714C81.8664 163.714 81.2166 163.565 80.8267 163.267C80.4368 162.969 80.1769 162.373 80.1769 161.778H81.2166C81.2166 162.076 81.3465 162.373 81.4765 162.522C81.7364 162.671 81.9963 162.82 82.2563 162.82C82.5162 162.82 82.7761 162.82 83.036 162.671C83.296 162.522 83.4259 162.373 83.4259 162.076C83.4259 161.927 83.296 161.778 83.166 161.629C82.9061 161.48 82.6462 161.331 82.2563 161.331C81.6065 161.182 81.0866 161.033 80.5668 160.586C80.3068 160.288 80.1769 159.841 80.1769 159.394C80.1769 158.799 80.3068 158.352 80.6967 158.054C81.0866 157.756 81.6065 157.458 82.2563 157.607C82.7761 157.607 83.296 157.756 83.6859 158.203C84.0757 158.501 84.3357 159.096 84.3357 159.692L83.296 159.543Z" fill="white"/>
<path d="M36.7473 148.553C36.7473 148.951 36.6211 149.216 36.4948 149.614C36.2423 150.011 35.8636 150.277 35.4849 150.542C35.1061 150.807 34.8536 151.072 34.6011 151.337H36.8736V152.265H33.3386C33.3386 151.867 33.4649 151.47 33.7174 151.072C34.0961 150.542 34.4749 150.144 34.9799 149.746C35.2324 149.614 35.3586 149.349 35.6111 149.216C35.7374 149.084 35.7374 148.818 35.7374 148.686C35.7374 148.421 35.7374 148.288 35.6111 148.156C35.4849 148.023 35.2324 147.89 35.1061 147.89C34.8536 147.89 34.7274 148.023 34.6011 148.156C34.4749 148.421 34.3486 148.686 34.4749 148.818H33.3386C33.3386 148.288 33.4649 147.89 33.7174 147.493C34.0961 147.095 34.4749 146.963 34.9799 146.963C35.4849 146.963 35.8636 147.095 36.2423 147.493C36.6211 147.625 36.7473 148.023 36.7473 148.553Z" fill="white"/>
<path d="M39.0495 152.361C38.7994 151.611 38.5493 150.861 38.6743 150.112C38.6743 149.362 38.7994 148.462 39.0495 147.712C39.2997 147.262 39.7999 146.963 40.4252 146.963C40.9254 146.963 41.4257 147.262 41.6758 147.712C42.051 148.462 42.176 149.212 42.176 150.112C42.176 150.861 42.051 151.761 41.8009 152.361C41.5507 152.811 41.0505 153.111 40.5503 153.111C39.7999 153.26 39.2997 152.961 39.0495 152.361ZM40.8004 151.611C40.9254 151.161 40.9254 150.561 40.9254 150.112C40.9254 149.512 40.9254 148.912 40.8004 148.462C40.6753 148.162 40.5503 148.012 40.3001 148.012C40.05 148.012 39.7999 148.162 39.7999 148.462C39.6748 149.062 39.5498 149.512 39.6748 150.112C39.6748 150.711 39.6748 151.161 39.7999 151.761C39.925 152.061 40.05 152.211 40.3001 152.211C40.5503 152.211 40.8004 152.061 40.8004 151.611Z" fill="white"/>
<path d="M43.9435 151.381H44.8273V152.265H43.9435V151.381Z" fill="white"/>
<path d="M47.6216 146.963H48.9114V149.161L51.2044 146.963H52.6375L50.3445 149.161L52.7808 152.265H51.0611L49.3414 149.937L48.7681 150.454V152.265H47.4783L47.6216 146.963Z" fill="white"/>
<path d="M39.5247 136.357H33.3385V142.544H39.5247V136.357Z" fill="white"/>
</svg>
