<svg width="59" height="55" viewBox="0 0 59 55" fill="none" xmlns="http://www.w3.org/2000/svg">
<path d="M0 50.4521H4.15534V54.4207L5.1868 55V50.4521H9.34214V49.4672H0V50.4521Z" fill="white"/>
<path d="M24.7256 51.7265H17.4169V49.467H16.3855V54.9998H17.4169V52.7403H24.7256V54.9998H25.7571V49.467H24.7256V51.7265Z" fill="white"/>
<path d="M32.8006 50.4519H41.1407V51.7265H32.8006V52.7403H41.1407V54.0149H32.8006V54.9998H42.1427V49.467H32.8006V50.4519Z" fill="white"/>
<path d="M59 49.467H58.0569L54.1079 51.7265L50.1588 49.467H49.1863V54.9998H50.2178V50.8285L54.1079 53.059L57.998 50.8285V54.9998L59 54.4205V49.467Z" fill="white"/>
<path d="M30.3194 25.4816L46.2749 34.5305C46.6987 34.7709 47.2405 34.6281 47.485 34.2116L47.5993 34.0171C47.8444 33.5996 48.388 33.4574 48.812 33.6997L53.008 36.0981C53.0503 36.1223 53.1045 36.1082 53.1291 36.0666C53.1537 36.0251 53.1394 35.9718 53.0971 35.9476L32.5798 24.2199C32.3083 24.0647 32.1407 23.7799 32.1392 23.4713L32.0268 0.0856267C32.0266 0.037542 31.9867 -0.00125786 31.9378 -0.00103666C31.8888 -0.000815459 31.8494 0.0383439 31.8496 0.0864283L31.8722 4.78804C31.8745 5.27033 31.4774 5.66254 30.9866 5.66269L30.7535 5.66276C30.2642 5.66292 29.8677 6.05284 29.8679 6.53369L29.8762 24.7278C29.8763 25.0388 30.0453 25.3261 30.3194 25.4816Z" fill="white"/>
<path d="M28.6806 25.5897C28.9547 25.4342 29.1236 25.1469 29.1238 24.8359L29.132 6.64174C29.1323 6.16089 28.7358 5.77096 28.2465 5.77081L28.0133 5.77074C27.5226 5.77058 27.1255 5.37838 27.1278 4.89608L27.1504 0.194477C27.1506 0.146392 27.1111 0.107233 27.0622 0.107012C27.0133 0.10679 26.9734 0.14559 26.9732 0.193675L26.8608 23.5794C26.8593 23.888 26.6917 24.1728 26.4202 24.3279L5.90291 36.0557C5.86061 36.0798 5.84626 36.1331 5.87086 36.1747C5.89545 36.2163 5.94968 36.2304 5.99198 36.2062L10.1879 33.8078C10.6119 33.5654 11.1556 33.7077 11.4007 34.1251L11.5149 34.3197C11.7595 34.7362 12.3013 34.8789 12.7251 34.6386L28.6806 25.5897Z" fill="white"/>
<path d="M29.9416 26.2364C29.6676 26.0809 29.3302 26.0808 29.0561 26.2361L13.0172 35.3262C12.5934 35.5664 12.4479 36.0989 12.6923 36.5155L12.8086 36.7138C13.0537 37.1317 12.9065 37.6658 12.4804 37.905L8.32573 40.2364C8.28325 40.2602 8.26847 40.3134 8.29272 40.3552C8.31698 40.397 8.37109 40.4115 8.41357 40.3876L29.0802 28.7903C29.3528 28.6373 29.6874 28.6376 29.9598 28.7909L50.5545 40.3875C50.597 40.4114 50.6511 40.3969 50.6754 40.3552C50.6997 40.3135 50.685 40.2603 50.6426 40.2364L46.4311 37.865C46.0056 37.6253 45.8591 37.0915 46.1043 36.674L46.2185 36.4796C46.4631 36.0631 46.318 35.5306 45.8943 35.2901L29.9416 26.2364Z" fill="white"/>
<path d="M29.9254 29.4796C29.6515 29.3241 29.314 29.324 29.04 29.4793L19.1946 35.0592C18.7708 35.2994 18.6253 35.8318 18.8697 36.2484L18.9964 36.4644C19.2402 36.8801 19.0959 37.4115 18.6736 37.6524L15.4125 39.513C15.3701 39.5372 15.3558 39.5905 15.3803 39.6321C15.4049 39.6736 15.4591 39.6878 15.5014 39.6637L29.041 31.9388C29.316 31.7819 29.6555 31.7819 29.9305 31.9389L43.4652 39.6636C43.5075 39.6878 43.5617 39.6736 43.5863 39.6321C43.6108 39.5905 43.5964 39.5372 43.5541 39.513L40.241 37.6221C39.8187 37.3811 39.6745 36.8495 39.9187 36.4337L40.0408 36.2259C40.2854 35.8094 40.1403 35.2769 39.7166 35.0364L29.9254 29.4796Z" fill="white"/>
<path d="M29.9943 32.7204L34.3264 35.1103C34.7531 35.3457 34.9048 35.8764 34.6654 36.2958L34.4939 36.5961C34.2578 37.0096 34.4017 37.5328 34.8176 37.773L37.1202 39.1031C37.1624 39.1275 37.1765 39.1808 37.1517 39.2223C37.1269 39.2637 37.0726 39.2776 37.0304 39.2532L29.941 35.1581C29.6704 35.0017 29.3358 34.9979 29.0614 35.1479L28.6774 35.358L21.9343 39.2532C21.8921 39.2776 21.8378 39.2637 21.813 39.2223C21.7882 39.1808 21.8023 39.1275 21.8445 39.1031L24.2741 37.6996C24.6889 37.46 24.8333 36.9387 24.5993 36.5255L24.4558 36.272C24.2179 35.8518 24.3717 35.3216 24.7992 35.0878L29.1299 32.7189C29.3988 32.5718 29.726 32.5724 29.9943 32.7204Z" fill="white"/>
<path d="M25.8303 23.9543L16.0374 29.5082C15.6136 29.7485 15.0718 29.6058 14.8273 29.1893L14.7052 28.9813C14.4611 28.5656 13.9206 28.4225 13.4969 28.6614L10.1736 30.5355C10.1312 30.5595 10.077 30.5451 10.0527 30.5034C10.0283 30.4617 10.043 30.4084 10.0855 30.3845L23.6605 22.729C23.9364 22.5734 24.1063 22.2843 24.1055 21.9716L24.0673 6.58738C24.0672 6.53929 24.1067 6.50021 24.1557 6.50009C24.2046 6.49996 24.2444 6.53884 24.2445 6.58693L24.2537 10.2928C24.2549 10.7727 24.651 11.1611 25.1393 11.1613L25.393 11.1613C25.8823 11.1615 26.2788 11.5514 26.2786 12.0323L26.2735 23.2005C26.2733 23.5115 26.1044 23.7989 25.8303 23.9543Z" fill="white"/>
<path d="M22.9397 22.3925C23.2044 22.2381 23.3686 21.9598 23.3735 21.6573L23.4511 16.7874C23.4588 16.3066 23.0684 15.9108 22.5792 15.9034L22.284 15.8989C21.8029 15.8915 21.4157 15.5081 21.412 15.0352L21.3899 12.2657C21.3895 12.2176 21.3495 12.1789 21.3006 12.1793C21.2516 12.1797 21.2123 12.219 21.2127 12.2671L21.274 19.9553L21.2672 20.3846C21.2623 20.6932 21.0915 20.9762 20.8182 21.1285L13.6646 25.1139C13.622 25.1376 13.6071 25.1907 13.6312 25.2325C13.6553 25.2744 13.7094 25.2891 13.752 25.2653L16.0758 23.9707C16.4955 23.7369 17.0284 23.876 17.2746 24.2837L17.4534 24.5799C17.7031 24.9934 18.2466 25.1296 18.6674 24.8842L22.9397 22.3925Z" fill="white"/>
<path d="M33.1697 23.8463C32.8956 23.6908 32.7267 23.4035 32.7265 23.0925L32.7215 11.9242C32.7212 11.4434 33.1177 11.0534 33.607 11.0533L33.8607 11.0532C34.349 11.0531 34.7451 10.6647 34.7463 10.1848L34.7555 6.47888C34.7556 6.4308 34.7954 6.39192 34.8443 6.39204C34.8933 6.39216 34.9328 6.43124 34.9327 6.47933L34.8945 21.8636C34.8937 22.1763 35.0636 22.4653 35.3395 22.621L48.9145 30.2765C48.957 30.3004 48.9716 30.3536 48.9473 30.3953C48.923 30.437 48.8688 30.4514 48.8264 30.4275L45.5031 28.5534C45.0794 28.3144 44.5389 28.4575 44.2948 28.8733L44.1727 29.0813C43.9282 29.4977 43.3864 29.6405 42.9626 29.4001L33.1697 23.8463Z" fill="white"/>
<path d="M36.0603 22.2845L40.3326 24.7762C40.7534 25.0216 41.2969 24.8853 41.5466 24.4718L41.7254 24.1757C41.9716 23.768 42.5045 23.6288 42.9242 23.8627L45.248 25.1573C45.2906 25.181 45.3447 25.1663 45.3688 25.1245C45.3929 25.0827 45.378 25.0295 45.3354 25.0058L38.1818 21.0204C37.9085 20.8682 37.7377 20.5852 37.7328 20.2765L37.726 19.8473L37.7873 12.159C37.7877 12.1109 37.7484 12.0716 37.6994 12.0713C37.6505 12.0709 37.6105 12.1095 37.6101 12.1576L37.588 14.9272C37.5843 15.4001 37.1971 15.7835 36.716 15.7908L36.4208 15.7953C35.9316 15.8028 35.5412 16.1986 35.5489 16.6794L35.6265 21.5493C35.6314 21.8517 35.7956 22.1301 36.0603 22.2845Z" fill="white"/>
</svg>
