<svg width="56" height="57" viewBox="0 0 56 57" fill="none" xmlns="http://www.w3.org/2000/svg">
<path fill-rule="evenodd" clip-rule="evenodd" d="M32.3426 32.9188C32.2812 33.4223 32.2631 33.9176 32.1257 34.4301C31.9069 35.1606 31.3347 35.6073 30.7174 35.5893C30.4245 35.5965 30.0123 35.4182 29.7348 35.1849L26.4978 32.5558H24.6945C23.8249 32.5558 23.2392 31.9632 23.1208 30.9868C22.9517 29.7853 22.968 27.6147 23.1208 26.3888C23.2392 25.5422 23.8249 24.8748 24.6945 24.8748H26.4978L29.6679 22.2907C29.9454 22.0556 30.4245 21.8341 30.7174 21.8404C31.3347 21.8224 31.9069 22.27 32.1257 22.9995C32.2477 23.4661 32.2812 24.0083 32.3426 24.5118C32.49 25.689 32.49 31.7416 32.3426 32.9188Z" stroke="white" stroke-width="0.859375" stroke-linecap="round" stroke-linejoin="round"/>
<path d="M22.5 21.5L36 35" stroke="white" stroke-linecap="round"/>
<circle cx="27.9375" cy="28.5" r="27.5" stroke="white" stroke-width="0.859375"/>
</svg>
