<svg width="59" height="57" viewBox="0 0 59 57" fill="none" xmlns="http://www.w3.org/2000/svg">
<path fill-rule="evenodd" clip-rule="evenodd" d="M31.3426 32.9188C31.2812 33.4222 31.2631 33.9176 31.1257 34.4301C30.9069 35.1606 30.3347 35.6073 29.7174 35.5893C29.4245 35.5965 29.0123 35.4182 28.7348 35.1849L25.4978 32.5558H23.6945C22.8249 32.5558 22.2392 31.9631 22.1208 30.9868C21.9517 29.7853 21.968 27.6146 22.1208 26.3888C22.2392 25.5422 22.8249 24.8747 23.6945 24.8747H25.4978L28.6679 22.2907C28.9454 22.0556 29.4245 21.834 29.7174 21.8403C30.3347 21.8223 30.9069 22.27 31.1257 22.9995C31.2477 23.4661 31.2812 24.0083 31.3426 24.5118C31.49 25.689 31.49 31.7416 31.3426 32.9188Z" stroke="white" stroke-width="0.859375" stroke-linecap="round" stroke-linejoin="round"/>
<path d="M34.756 24.2551C35.5363 25.3774 36.0047 26.8831 36.0047 28.5588C36.0047 30.2346 35.5363 31.7394 34.756 32.8617" stroke="white" stroke-width="0.859375" stroke-linecap="round" stroke-linejoin="round"/>
<path d="M37.7046 21.625C38.9619 23.4331 39.7164 25.8583 39.7164 28.5584C39.7164 31.2586 38.9619 33.6846 37.7046 35.4927" stroke="white" stroke-width="0.859375" stroke-linecap="round" stroke-linejoin="round"/>
<circle cx="30.9375" cy="28.5" r="27.5" stroke="white" stroke-width="0.859375"/>
<rect y="28.5148" width="4.88225" height="4.88225" transform="rotate(-45 0 28.5148)" fill="white"/>
</svg>
